<svg width="89" height="24" viewBox="0 0 89 24" fill="none" xmlns="http://www.w3.org/2000/svg">
<g clip-path="url(#clip0_1351_856)">
<path d="M0 2.41096C0 1.07942 1.07942 0 2.41096 0H21.6986C23.0301 0 24.1096 1.07942 24.1096 2.41096V4.16438C24.1096 5.49592 23.0301 6.57534 21.6986 6.57534H2.41096C1.07942 6.57534 0 5.49592 0 4.16438V2.41096Z" fill="#FE7622"/>
<path d="M0 11.6165C0 10.285 1.07942 9.20557 2.41096 9.20557H21.6986C23.0301 9.20557 24.1096 10.285 24.1096 11.6165V21.5891C24.1096 22.9206 23.0301 24.0001 21.6986 24.0001H2.41096C1.07942 24.0001 0 22.9206 0 21.5891V11.6165Z" fill="#1E1E1E"/>
</g>
<path d="M38.4296 5C39.5496 5 40.4896 5.22667 41.2496 5.68C42.0096 6.13333 42.5696 6.72667 42.9296 7.46C43.2896 8.19333 43.4696 8.98 43.4696 9.82C43.4696 10.66 43.2896 11.44 42.9296 12.16C42.583 12.8667 42.0296 13.44 41.2696 13.88C40.5096 14.32 39.563 14.54 38.4296 14.54H35.9696V19H33.2496V5H38.4296ZM38.0096 12.26C38.7963 12.26 39.4563 12.0733 39.9896 11.7C40.523 11.3267 40.7896 10.7 40.7896 9.82C40.7896 8.94 40.523 8.32667 39.9896 7.98C39.4696 7.62 38.8096 7.44 38.0096 7.44H35.9696V12.26H38.0096ZM45.3427 5H48.1427V19H45.3427V5ZM50.7106 5H53.4506V10.68H53.5506L58.4306 5H61.6306L56.4706 10.96L61.7306 19H58.6106L54.7506 12.86L53.4506 14.3V19H50.7106V5ZM69.497 19.2C67.7636 19.2 66.3703 18.6867 65.317 17.66C64.2636 16.62 63.737 15.02 63.737 12.86V5H66.497V12.7C66.497 13.78 66.7103 14.6933 67.137 15.44C67.577 16.1867 68.3636 16.56 69.497 16.56C70.6036 16.56 71.377 16.1933 71.817 15.46C72.257 14.7133 72.477 13.7933 72.477 12.7V5H75.217V12.86C75.217 15.0067 74.6903 16.6 73.637 17.64C72.5836 18.68 71.2036 19.2 69.497 19.2ZM82.7265 5C83.8465 5 84.7865 5.22667 85.5465 5.68C86.3065 6.13333 86.8665 6.72667 87.2265 7.46C87.5865 8.19333 87.7665 8.98 87.7665 9.82C87.7665 10.66 87.5865 11.44 87.2265 12.16C86.8798 12.8667 86.3265 13.44 85.5665 13.88C84.8065 14.32 83.8598 14.54 82.7265 14.54H80.2665V19H77.5465V5H82.7265ZM82.3065 12.26C83.0932 12.26 83.7532 12.0733 84.2865 11.7C84.8198 11.3267 85.0865 10.7 85.0865 9.82C85.0865 8.94 84.8198 8.32667 84.2865 7.98C83.7665 7.62 83.1065 7.44 82.3065 7.44H80.2665V12.26H82.3065Z" fill="#1E1E1E"/>
<defs>
<clipPath id="clip0_1351_856">
<rect width="24.1096" height="24" fill="white"/>
</clipPath>
</defs>
</svg>
